<svg width="311" height="220" viewBox="0 0 311 220" fill="none" xmlns="http://www.w3.org/2000/svg">
<g clip-path="url(#clip0_59_10913)">
<path d="M158.835 219.533C168.189 219.533 175.772 211.922 175.772 202.532C175.772 193.143 168.189 185.531 158.835 185.531C149.481 185.531 141.898 193.143 141.898 202.532C141.898 211.922 149.481 219.533 158.835 219.533Z" fill="#E8BF6F"/>
<path d="M260.014 218.579C269.489 215.722 279.562 212.744 287.077 205.953C293.792 199.885 298.325 190.619 295.543 181.519C292.767 172.438 284.452 166.382 275.867 163.371C270.997 161.663 265.903 160.715 260.811 159.97C255.275 159.161 249.715 158.498 244.158 157.86C221.655 155.276 199.067 153.698 176.395 153.125C165.208 152.842 154.022 152.849 142.834 153.012C132.841 153.158 122.317 153.154 113.047 148.891C105.839 145.576 99.2963 139.545 97.2877 131.619C94.9691 122.47 99.2458 113.153 105.38 106.527C108.614 103.035 112.394 100.095 116.292 97.3921C120.522 94.4597 124.899 91.735 129.371 89.1917C138.178 84.1848 147.386 79.9237 156.899 76.4526C161.592 74.7398 166.354 73.262 171.158 71.8988C175.214 70.7476 179.283 69.5948 183.204 68.0264C190.782 64.9945 197.99 59.8587 199.917 51.4389C201.744 43.459 198.664 34.7962 193.266 28.8681C187.02 22.0097 177.603 19.0032 168.575 18.5168C158.44 17.9707 148.537 20.517 139.011 23.7486C128.85 27.1953 118.908 31.1585 108.533 33.9503C98.2441 36.7161 87.7563 38.673 77.1647 39.8033C71.9798 40.3575 66.6381 40.9833 61.4223 40.559C57.051 40.2034 52.7021 38.913 49.4805 35.7989C46.7181 33.1287 45.0726 29.459 45.6383 25.5863C45.7411 24.883 46.8055 25.182 46.7034 25.8811C46.0148 30.5952 49.2071 34.9391 53.1409 37.1643C57.6874 39.736 63.2197 39.7395 68.2815 39.4454C79.2568 38.78 90.1578 37.1981 100.872 34.7163C111.399 32.3027 121.55 28.8523 131.69 25.1665C141.321 21.666 151.166 18.2495 161.455 17.4913C170.382 16.8334 179.773 18.1388 187.55 22.8218C194.385 26.9375 199.411 33.8012 201.013 41.6774C202.577 49.3739 200.41 57.1205 194.606 62.4914C188.597 68.0523 180.357 70.4298 172.678 72.6194C162.939 75.3966 153.408 78.6429 144.183 82.8581C134.832 87.1185 125.864 92.1794 117.379 97.9845C109.188 103.603 101.105 110.673 98.514 120.696C97.3073 125.365 97.5301 130.317 99.5492 134.727C101.345 138.648 104.301 141.947 107.746 144.491C115.964 150.561 126.322 151.808 136.249 151.932C147.398 152.071 158.548 151.693 169.701 151.877C192.43 152.251 215.113 153.64 237.749 156.043C243.421 156.646 249.086 157.312 254.743 158.041C259.832 158.698 264.938 159.35 269.942 160.516C278.838 162.588 287.495 166.574 293.024 174.145C295.478 177.427 296.999 181.316 297.423 185.398C297.81 189.657 296.771 193.924 294.853 197.713C290.607 206.099 282.653 211.433 274.207 214.937C269.683 216.814 264.991 218.236 260.308 219.648C259.625 219.853 259.334 218.784 260.014 218.579L260.014 218.579Z" fill="#F2F2F2"/>
<path d="M46.3522 34.5565C51.2324 34.5565 55.1887 30.5852 55.1887 25.6865C55.1887 20.7877 51.2324 16.8164 46.3522 16.8164C41.4719 16.8164 37.5156 20.7877 37.5156 25.6865C37.5156 30.5852 41.4719 34.5565 46.3522 34.5565Z" fill="#F2F2F2"/>
<path d="M107.657 51.3729C112.537 51.3729 116.493 47.4017 116.493 42.5029C116.493 37.6041 112.537 33.6328 107.657 33.6328C102.777 33.6328 98.8203 37.6041 98.8203 42.5029C98.8203 47.4017 102.777 51.3729 107.657 51.3729Z" fill="#F2F2F2"/>
<path d="M159.571 17.7401C164.451 17.7401 168.407 13.7688 168.407 8.87005C168.407 3.97126 164.451 0 159.571 0C154.691 0 150.734 3.97126 150.734 8.87005C150.734 13.7688 154.691 17.7401 159.571 17.7401Z" fill="#F2F2F2"/>
<path d="M191.969 55.4374C196.85 55.4374 200.806 51.4661 200.806 46.5673C200.806 41.6685 196.85 37.6973 191.969 37.6973C187.089 37.6973 183.133 41.6685 183.133 46.5673C183.133 51.4661 187.089 55.4374 191.969 55.4374Z" fill="#F2F2F2"/>
<path d="M148.157 99.0487C153.037 99.0487 156.993 95.0774 156.993 90.1786C156.993 85.2799 153.037 81.3086 148.157 81.3086C143.277 81.3086 139.32 85.2799 139.32 90.1786C139.32 95.0774 143.277 99.0487 148.157 99.0487Z" fill="#F2F2F2"/>
<path d="M92.5592 120.115C97.4395 120.115 101.396 116.144 101.396 111.245C101.396 106.346 97.4395 102.375 92.5592 102.375C87.6789 102.375 83.7227 106.346 83.7227 111.245C83.7227 116.144 87.6789 120.115 92.5592 120.115Z" fill="#F2F2F2"/>
<path d="M151.469 153.008C156.35 153.008 160.306 149.036 160.306 144.138C160.306 139.239 156.35 135.268 151.469 135.268C146.589 135.268 142.633 139.239 142.633 144.138C142.633 149.036 146.589 153.008 151.469 153.008Z" fill="#F2F2F2"/>
<path d="M214.797 171.488C219.678 171.488 223.634 167.517 223.634 162.618C223.634 157.719 219.678 153.748 214.797 153.748C209.917 153.748 205.961 157.719 205.961 162.618C205.961 167.517 209.917 171.488 214.797 171.488Z" fill="#F2F2F2"/>
<path d="M288.805 167.422C293.686 167.422 297.642 163.45 297.642 158.552C297.642 153.653 293.686 149.682 288.805 149.682C283.925 149.682 279.969 153.653 279.969 158.552C279.969 163.45 283.925 167.422 288.805 167.422Z" fill="#F2F2F2"/>
<path d="M157.02 25.1321C130.55 25.3198 108.877 46.9118 108.501 73.48C108.498 73.7253 108.496 75.45 108.496 77.7059C108.496 81.0135 109.805 84.1856 112.135 86.5245C114.465 88.8634 117.625 90.1775 120.92 90.1779H120.92C122.554 90.1775 124.171 89.8541 125.68 89.2261C127.189 88.598 128.56 87.6777 129.714 86.5177C130.868 85.3577 131.784 83.9807 132.408 82.4655C133.032 80.9502 133.352 79.3264 133.351 77.6868C133.349 76.1522 133.349 75.0901 133.349 75.0249C133.348 70.9188 134.412 66.8832 136.436 63.3151C138.46 59.747 141.375 56.7693 144.893 54.6749C148.412 52.5804 152.413 51.4415 156.503 51.37C160.593 51.2985 164.631 52.2969 168.22 54.2671C171.808 56.2373 174.825 59.1113 176.971 62.6065C179.118 66.1017 180.321 70.0976 180.463 74.2013C180.605 78.3049 179.68 82.3748 177.779 86.0107C175.878 89.6466 173.067 92.7232 169.623 94.9379L169.627 94.9432C169.627 94.9432 151.944 106.371 146.552 122.047L146.557 122.048C145.609 125.259 145.129 128.592 145.131 131.941C145.131 133.318 145.211 145.365 145.367 155.143C145.422 158.517 146.795 161.734 149.192 164.1C151.588 166.466 154.815 167.792 158.177 167.791H158.177C159.866 167.791 161.538 167.455 163.098 166.804C164.657 166.153 166.073 165.199 167.263 163.996C168.454 162.793 169.396 161.366 170.035 159.797C170.674 158.228 170.998 156.547 170.987 154.851C170.933 145.897 170.904 135.47 170.904 134.713C170.904 125.087 180.155 115.496 187.754 109.242C196.504 102.04 202.801 92.2253 205.33 81.1539C205.89 78.8745 206.198 76.5403 206.25 74.1933C206.25 67.7205 204.974 61.3117 202.496 55.3361C200.017 49.3605 196.385 43.9362 191.809 39.3758C187.233 34.8154 181.803 31.2091 175.833 28.7645C169.862 26.3199 163.468 25.0854 157.02 25.1321Z" fill="#E8BF6F"/>
<path d="M310.56 219.999H0.437129C0.321079 219.999 0.209899 219.952 0.127958 219.87C0.0460171 219.787 0 219.676 0 219.559C0 219.443 0.0460171 219.331 0.127958 219.248C0.209899 219.166 0.321079 219.119 0.437129 219.119H310.56C310.677 219.119 310.788 219.166 310.87 219.248C310.953 219.331 310.999 219.443 310.999 219.559C310.999 219.676 310.953 219.788 310.87 219.87C310.788 219.953 310.677 219.999 310.56 219.999Z" fill="#3F3D56"/>
<path d="M231.389 100.896C237.49 100.896 242.435 95.9318 242.435 89.8083C242.435 83.6848 237.49 78.7207 231.389 78.7207C225.289 78.7207 220.344 83.6848 220.344 89.8083C220.344 95.9318 225.289 100.896 231.389 100.896Z" fill="#2F2E41"/>
<path d="M210.978 215.147H206.464L204.316 197.67H210.979L210.978 215.147Z" fill="#FFE5A3"/>
<path d="M203.239 213.852H211.944V219.354H197.758C197.758 218.631 197.9 217.916 198.175 217.248C198.45 216.581 198.854 215.974 199.363 215.463C199.872 214.952 200.476 214.547 201.141 214.27C201.806 213.994 202.519 213.852 203.239 213.852Z" fill="#2F2E41"/>
<path d="M245.954 215.147H241.441L239.293 197.67H245.955L245.954 215.147Z" fill="#FFE5A3"/>
<path d="M238.216 213.852H246.921V219.354H232.734C232.734 218.631 232.876 217.916 233.152 217.248C233.427 216.581 233.831 215.974 234.34 215.463C234.849 214.952 235.453 214.547 236.118 214.27C236.783 213.994 237.496 213.852 238.216 213.852Z" fill="#2F2E41"/>
<path d="M229.707 100.959C234.702 100.959 238.75 96.8954 238.75 91.8821C238.75 86.8688 234.702 82.8047 229.707 82.8047C224.713 82.8047 220.664 86.8688 220.664 91.8821C220.664 96.8954 224.713 100.959 229.707 100.959Z" fill="#FFE5A3"/>
<path d="M235.098 130.244L239.145 120.912C240.127 118.723 240.409 116.281 239.951 113.925C239.492 111.568 238.317 109.412 236.586 107.755C236.23 107.402 235.853 107.072 235.455 106.768C233.459 105.2 230.998 104.346 228.463 104.34C226.759 104.346 225.076 104.722 223.53 105.441C223.397 105.5 223.268 105.563 223.136 105.626C222.882 105.748 222.631 105.881 222.388 106.018C220.803 106.931 219.454 108.206 218.45 109.739C217.446 111.272 216.815 113.021 216.608 114.843L214.822 129.863C214.373 131.042 198.349 173.619 203.953 206.124C204.013 206.471 204.181 206.79 204.434 207.034C204.688 207.278 205.012 207.434 205.36 207.48L211.041 208.256C211.456 208.313 211.877 208.21 212.219 207.968C212.561 207.726 212.799 207.363 212.885 206.952L222.418 161.341C222.477 161.058 222.63 160.802 222.85 160.616C223.071 160.43 223.348 160.323 223.636 160.314C223.925 160.304 224.208 160.391 224.441 160.562C224.674 160.733 224.843 160.977 224.921 161.256L238.39 209.221C238.486 209.569 238.693 209.877 238.98 210.096C239.266 210.315 239.617 210.433 239.977 210.433C240.084 210.432 240.191 210.422 240.297 210.403L247.237 209.062C247.641 208.986 248.002 208.762 248.249 208.433C248.496 208.104 248.612 207.694 248.574 207.284C247.554 195.868 242.134 138.682 235.098 130.244Z" fill="#C48E25"/>
<path d="M194.564 99.4368C194.501 99.9764 194.557 100.523 194.728 101.039C194.898 101.555 195.179 102.026 195.551 102.421C195.923 102.816 196.377 103.124 196.88 103.324C197.384 103.524 197.924 103.61 198.465 103.577L203.52 115.771L207.343 110.081L201.957 99.3745C201.842 98.467 201.399 97.6335 200.713 97.0317C200.027 96.43 199.144 96.1018 198.233 96.1095C197.322 96.1172 196.445 96.4601 195.769 97.0734C195.092 97.6866 194.664 98.5275 194.564 99.4368L194.564 99.4368Z" fill="#FFE5A3"/>
<path d="M229.208 142.521C229.745 142.457 230.262 142.275 230.722 141.988C231.182 141.701 231.573 141.317 231.869 140.862C232.165 140.407 232.358 139.892 232.434 139.355C232.51 138.817 232.468 138.269 232.31 137.749L242.946 129.973L236.543 127.566L227.425 135.319C226.572 135.643 225.868 136.269 225.445 137.079C225.022 137.89 224.91 138.827 225.129 139.715C225.349 140.603 225.886 141.379 226.637 141.896C227.389 142.413 228.304 142.636 229.208 142.521Z" fill="#FFE5A3"/>
<path d="M211.872 123.9C211.464 123.9 211.057 123.859 210.657 123.78C209.69 123.595 208.783 123.174 208.016 122.554C207.248 121.935 206.645 121.135 206.258 120.226L199.177 111.558C199.027 111.375 198.918 111.161 198.857 110.932C198.796 110.703 198.785 110.464 198.823 110.23C198.862 109.996 198.95 109.774 199.082 109.577C199.213 109.38 199.385 109.214 199.586 109.089L204.624 105.958C204.81 105.842 205.017 105.765 205.233 105.73C205.449 105.695 205.67 105.704 205.883 105.755C206.095 105.806 206.296 105.899 206.473 106.028C206.649 106.158 206.799 106.321 206.912 106.509L211.904 114.763L221.462 107.672C222.224 107.272 223.103 107.159 223.94 107.356C224.776 107.552 225.515 108.044 226.02 108.742C226.525 109.44 226.763 110.297 226.691 111.156C226.619 112.016 226.241 112.82 225.627 113.423L216.086 122.159C214.965 123.275 213.45 123.9 211.872 123.9Z" fill="#C48E25"/>
<path d="M237.699 136.937C237.686 136.937 237.673 136.937 237.66 136.936C237.428 136.931 237.199 136.876 236.989 136.776C236.779 136.676 236.592 136.533 236.441 136.356L231.961 131.11C231.809 130.932 231.696 130.723 231.63 130.497C231.564 130.271 231.546 130.034 231.578 129.801C231.61 129.568 231.691 129.344 231.816 129.145C231.94 128.945 232.105 128.775 232.3 128.644L240.688 123.031L233.089 113.861C232.647 113.121 232.485 112.246 232.633 111.397C232.78 110.547 233.227 109.779 233.892 109.232C234.557 108.686 235.396 108.398 236.255 108.421C237.114 108.444 237.936 108.777 238.571 109.358L247.806 118.418C248.533 119.084 249.088 119.918 249.423 120.847C249.758 121.776 249.864 122.773 249.731 123.752C249.598 124.732 249.23 125.664 248.659 126.469C248.088 127.274 247.331 127.928 246.453 128.375L238.905 136.415C238.75 136.579 238.563 136.711 238.355 136.8C238.148 136.89 237.925 136.937 237.699 136.937Z" fill="#C48E25"/>
<path d="M227.409 117.608C227.337 117.608 227.265 117.603 227.194 117.594C226.882 117.556 226.587 117.429 226.345 117.228C226.103 117.027 225.923 116.76 225.827 116.46L222.461 106.1C222.377 105.839 222.39 105.555 222.498 105.302C222.606 105.049 222.801 104.843 223.048 104.724L223.157 104.672C223.256 104.625 223.355 104.578 223.455 104.533C225.024 103.803 226.733 103.421 228.463 103.416C230.709 103.42 232.905 104.083 234.782 105.322C235.033 105.49 235.209 105.75 235.271 106.047C235.333 106.344 235.277 106.654 235.114 106.909L228.799 116.839C228.651 117.075 228.446 117.269 228.203 117.403C227.959 117.538 227.686 117.608 227.409 117.608Z" fill="#E6E6E6"/>
<path d="M240.095 84.8578C242.091 84.8578 243.709 83.2334 243.709 81.2297C243.709 79.2259 242.091 77.6016 240.095 77.6016C238.099 77.6016 236.48 79.2259 236.48 81.2297C236.48 83.2334 238.099 84.8578 240.095 84.8578Z" fill="#2F2E41"/>
<path d="M227.706 77.2422C225.167 77.2422 222.732 78.2546 220.937 80.0567C219.141 81.8587 218.133 84.3029 218.133 86.8514V90.9168H223.114L225.497 86.8514L226.211 90.9168H241.329L237.279 86.8514C237.279 84.3029 236.27 81.8587 234.475 80.0567C232.68 78.2546 230.245 77.2422 227.706 77.2422Z" fill="#2F2E41"/>
<path d="M241.953 78.7452C242.353 77.4906 243.18 76.4177 244.29 75.715C245.4 75.0123 246.721 74.7248 248.021 74.9031C250.325 75.2896 252.146 77.1482 253.231 79.224C254.316 81.2997 254.817 83.623 255.547 85.8499C256.276 88.0768 257.311 90.3158 259.152 91.7573C260.994 93.1988 263.82 93.5899 265.629 92.107C265.422 93.6524 264.736 95.0935 263.669 96.2265C262.602 97.3595 261.207 98.127 259.681 98.4205C258.155 98.7139 256.576 98.5185 255.168 97.8618C253.759 97.2051 252.591 96.1204 251.83 94.761C250.876 93.0566 250.629 91.059 250.346 89.1245C250.063 87.19 249.695 85.1885 248.556 83.6027C247.417 82.017 245.284 80.9813 243.474 81.7036L241.953 78.7452Z" fill="#2F2E41"/>
<path d="M124.426 84.2788C121.131 84.2784 117.971 82.9643 115.641 80.6254C113.311 78.2865 112.002 75.1144 112.002 71.8068C112.002 69.5509 112.004 67.8261 112.007 67.5809C112.112 59.8541 114.05 52.2637 117.662 45.4395C111.728 53.5936 108.465 63.3973 108.325 73.4942C108.322 73.7395 108.32 75.4643 108.32 77.7201C108.321 81.0277 109.63 84.1998 111.959 86.5387C114.289 88.8776 117.449 90.1918 120.745 90.1922C123.452 90.1911 126.086 89.303 128.245 87.6626C130.403 86.0223 131.97 83.7194 132.706 81.1039C130.431 83.1516 127.482 84.2825 124.426 84.2788Z" fill="#C38E25"/>
<path d="M157.861 51.4132C161.67 51.5958 165.378 52.7038 168.667 54.6419C171.956 56.58 174.727 59.2904 176.742 62.5403C178.758 65.7902 179.957 69.4826 180.238 73.3004C180.519 77.1182 179.872 80.9473 178.354 84.459C180.55 81.8699 182.164 78.8359 183.086 75.5638C184.009 72.2917 184.217 68.8585 183.698 65.4983C183.178 62.138 181.943 58.9296 180.076 56.092C178.21 53.2543 175.755 50.854 172.881 49.0548C170.006 47.2556 166.779 46.0996 163.419 45.6659C160.059 45.2321 156.645 45.5307 153.411 46.5413C150.176 47.5518 147.197 49.2506 144.675 51.5218C142.154 53.793 140.15 56.5832 138.801 59.7022C141.133 56.9478 144.065 54.768 147.37 53.3308C150.674 51.8937 154.263 51.2376 157.861 51.4132Z" fill="#C38E25"/>
<path d="M161.685 161.893C158.323 161.894 155.096 160.568 152.7 158.202C150.304 155.836 148.93 152.619 148.876 149.245C148.72 139.467 148.639 127.42 148.639 126.043C148.637 122.694 149.117 119.362 150.065 116.15L150.061 116.149C150.62 114.537 151.297 112.968 152.084 111.455C149.668 114.687 147.745 118.262 146.379 122.062L146.383 122.064C145.435 125.275 144.955 128.607 144.957 131.957C144.957 133.333 145.038 145.38 145.194 155.158C145.248 158.532 146.622 161.749 149.018 164.115C151.415 166.481 154.641 167.807 158.003 167.806C160.774 167.806 163.471 166.903 165.689 165.234C167.906 163.565 169.524 161.219 170.301 158.549C167.946 160.705 164.872 161.898 161.685 161.893Z" fill="#C38E25"/>
<path d="M46.5909 215.315L51.1046 215.315L53.2522 197.838L46.5898 197.838L46.5909 215.315Z" fill="#FFB8B8"/>
<path d="M59.8125 219.521L45.6259 219.522L45.6257 214.02L54.3311 214.02C55.7848 214.02 57.179 214.599 58.2069 215.631C59.2349 216.663 59.8124 218.062 59.8125 219.521L59.8125 219.521Z" fill="#2F2E41"/>
<path d="M30.3917 215.315L34.9054 215.315L37.053 197.838L30.3906 197.838L30.3917 215.315Z" fill="#FFB8B8"/>
<path d="M43.6094 219.521L29.4228 219.522L29.4226 214.02L38.128 214.02C39.5817 214.02 40.9758 214.599 42.0038 215.631C43.0318 216.663 43.6093 218.062 43.6094 219.521L43.6094 219.521Z" fill="#2F2E41"/>
<path d="M47.4025 101.385C52.3968 101.385 56.4456 97.3212 56.4456 92.3079C56.4456 87.2946 52.3968 83.2305 47.4025 83.2305C42.4081 83.2305 38.3594 87.2946 38.3594 92.3079C38.3594 97.3212 42.4081 101.385 47.4025 101.385Z" fill="#FFE1E7"/>
<path d="M32.344 118.976L33.3383 140.51L33.6977 148.345C33.7121 148.686 33.8274 149.015 34.0291 149.29C34.2307 149.565 34.5095 149.773 34.8297 149.888L58.1493 158.368C58.3376 158.438 58.5372 158.473 58.7382 158.471C58.9679 158.472 59.1955 158.427 59.4073 158.338C59.6191 158.249 59.8109 158.118 59.9712 157.953C60.1315 157.788 60.2569 157.592 60.3401 157.377C60.4233 157.162 60.4625 156.932 60.4553 156.702L59.4993 117.981C59.4365 114.805 58.2715 111.749 56.2052 109.342C54.1388 106.935 51.3006 105.327 48.1798 104.796C47.9542 104.761 47.7248 104.727 47.4953 104.696C45.5601 104.455 43.5958 104.642 41.7406 105.245C39.8854 105.848 38.1843 106.851 36.757 108.185C35.2791 109.55 34.1179 111.223 33.3553 113.088C32.5927 114.952 32.2475 116.962 32.344 118.976L32.344 118.976Z" fill="#FFE0A3"/>
<path d="M69.2909 154.072C68.7394 153.9 68.2355 153.601 67.8194 153.199C67.4034 152.797 67.0867 152.303 66.8946 151.756C66.7026 151.21 66.6405 150.625 66.7134 150.05C66.7862 149.475 66.992 148.925 67.3142 148.444L59.4062 137.889L66.2304 137.465L72.6937 147.553C73.3856 148.09 73.8671 148.855 74.0537 149.713C74.2403 150.57 74.12 151.467 73.7141 152.244C73.3081 153.022 72.6424 153.631 71.8336 153.965C71.0248 154.299 70.1246 154.337 69.2909 154.072H69.2909Z" fill="#FFE1E7"/>
<path d="M47.0093 146.533C46.7998 146.447 46.6092 146.321 46.4486 146.161C46.288 146.002 46.1606 145.812 46.0737 145.602L34.1598 117.109C33.926 116.551 33.804 115.953 33.8008 115.347C33.7977 114.742 33.9133 114.142 34.1412 113.582C34.3691 113.022 34.7048 112.512 35.129 112.082C35.5533 111.652 36.0578 111.31 36.6137 111.076C37.1697 110.842 37.7661 110.72 38.369 110.717C38.972 110.714 39.5695 110.831 40.1275 111.06C40.6855 111.289 41.1931 111.626 41.6211 112.053C42.0492 112.479 42.3894 112.985 42.6223 113.544L54.5363 142.037C54.7124 142.459 54.7143 142.935 54.5417 143.359C54.3691 143.783 54.0361 144.12 53.6156 144.298L48.3264 146.526C48.1182 146.615 47.8946 146.661 47.6685 146.662C47.4424 146.663 47.2183 146.619 47.0093 146.533L47.0093 146.533Z" fill="#CECECE"/>
<path d="M34.3363 210.297L29.9273 210.065C29.6999 210.053 29.4772 209.995 29.272 209.896C29.0668 209.797 28.8833 209.658 28.732 209.488C28.5806 209.317 28.4646 209.118 28.3905 208.902C28.3164 208.686 28.2858 208.457 28.3004 208.229L33.5702 149.662L57.8379 156.235L60.176 155.595L52.8644 207.442C52.8021 207.832 52.6091 208.189 52.3174 208.454C52.0256 208.72 51.6525 208.877 51.2597 208.9L46.5068 209.123C46.2692 209.136 46.0314 209.099 45.8084 209.016C45.5855 208.932 45.3823 208.803 45.2116 208.636C45.041 208.47 44.9066 208.269 44.817 208.048C44.7274 207.827 44.6845 207.589 44.6911 207.35L45.5523 176.232C45.5563 176.088 45.5065 175.948 45.4127 175.839C45.3189 175.731 45.1878 175.661 45.0454 175.644C44.9029 175.628 44.7594 175.665 44.6431 175.749C44.5268 175.833 44.4462 175.958 44.4171 176.099L36.1119 208.923C36.0335 209.313 35.823 209.663 35.5162 209.914C35.2094 210.165 34.8254 210.301 34.4296 210.3C34.3987 210.3 34.3676 210.299 34.3363 210.297Z" fill="#C38E25"/>
<path d="M44.4922 145.528L55.9352 123.535C56.1559 123.112 56.5347 122.794 56.9885 122.651C57.4424 122.508 57.9342 122.552 58.356 122.772L74.9656 131.48C75.387 131.701 75.7036 132.081 75.846 132.537C75.9885 132.993 75.945 133.486 75.7253 133.91L64.2823 155.903C64.0616 156.326 63.6828 156.644 63.229 156.787C62.7751 156.93 62.2833 156.886 61.8615 156.666L45.2519 147.958C44.8305 147.737 44.5139 147.357 44.3715 146.901C44.229 146.446 44.2725 145.952 44.4922 145.528Z" fill="#E8BF6F"/>
<path d="M52.1686 135.481C51.9651 134.938 51.6382 134.451 51.2138 134.058C50.7895 133.664 50.2794 133.376 49.7244 133.216C49.1694 133.056 48.5847 133.028 48.0172 133.135C47.4496 133.242 46.9148 133.481 46.4554 133.832L35.4913 126.531L35.4727 133.394L45.8872 139.275C46.4621 139.937 47.2507 140.374 48.1147 140.51C48.9787 140.647 49.863 140.473 50.6124 140.021C51.3617 139.568 51.9284 138.865 52.213 138.035C52.4975 137.204 52.4818 136.3 52.1686 135.481Z" fill="#FFE1E7"/>
<path d="M38.3074 137.024L29.3469 129.899C28.3775 129.572 27.5016 129.014 26.7944 128.273C26.0871 127.532 25.5697 126.629 25.2864 125.643C25.0031 124.657 24.9625 123.616 25.168 122.611C25.3735 121.605 25.8191 120.665 26.4664 119.87L34.6023 109.167C35.1677 108.474 35.9628 108.007 36.8423 107.854C37.7219 107.7 38.6271 107.87 39.3925 108.331C40.1578 108.792 40.7323 109.515 41.0108 110.366C41.2893 111.218 41.2532 112.141 40.9092 112.968L34.4719 123.538L43.9321 128.042C44.1521 128.147 44.3474 128.297 44.5052 128.484C44.663 128.67 44.7797 128.887 44.8475 129.122C44.9153 129.357 44.9327 129.603 44.8985 129.845C44.8644 130.087 44.7795 130.319 44.6494 130.526L40.8306 136.592C40.7015 136.797 40.531 136.972 40.3302 137.107C40.1293 137.241 39.9026 137.331 39.6647 137.372C39.6552 137.374 39.6457 137.375 39.6362 137.377C39.4024 137.412 39.1639 137.399 38.9353 137.339C38.7068 137.278 38.493 137.171 38.3074 137.024Z" fill="#FFE0A3"/>
<path d="M40.567 98.386C40.5282 98.272 40.5159 98.1507 40.5311 98.0312C40.5462 97.9118 40.5884 97.7974 40.6543 97.6968C40.7203 97.5963 40.8083 97.5122 40.9117 97.4511C41.015 97.3899 41.1309 97.3533 41.2505 97.3441C41.4955 97.3575 41.7352 97.4205 41.9551 97.5295C42.1751 97.6384 42.3708 97.791 42.5304 97.9779C42.8577 98.3567 43.2387 98.6851 43.6612 98.9526C44.0986 99.1739 44.6919 99.1424 44.9413 98.7204C45.1755 98.3241 45.015 97.7935 44.8733 97.3331C44.5125 96.1621 44.3106 94.9475 44.2731 93.7223C44.2323 92.3547 44.4245 90.9275 45.1788 89.8608C46.1522 88.4842 47.8928 87.9616 49.5401 87.9995C51.1874 88.0374 52.808 88.5478 54.4397 88.8705C55.003 88.9819 55.6651 89.0388 56.0419 88.6006C56.4425 88.1346 56.2953 87.3804 56.1249 86.7513C55.6828 85.1187 55.2137 83.4307 54.1863 82.1122C53.0755 80.7421 51.4888 79.8453 49.7457 79.6026C48.0722 79.3945 46.3734 79.5881 44.789 80.1675C42.2076 80.9842 39.9361 82.5726 38.2783 84.7203C36.5695 87.0042 35.8311 89.8744 36.2246 92.7034C36.609 95.1673 37.9097 97.3932 39.8644 98.9326L40.567 98.386Z" fill="black"/>
<path d="M155.101 215.386C152.695 214.334 150.566 212.735 148.881 210.716C147.196 208.697 146.001 206.312 145.392 203.749C144.782 201.187 144.775 198.518 145.369 195.952C145.963 193.386 147.143 190.994 148.816 188.965C146.877 190.386 145.26 192.206 144.075 194.302C142.889 196.399 142.161 198.725 141.94 201.125C141.718 203.526 142.007 205.946 142.789 208.225C143.57 210.505 144.825 212.592 146.472 214.347C148.118 216.102 150.117 217.486 152.337 218.407C154.557 219.327 156.946 219.763 159.346 219.686C161.747 219.608 164.103 219.019 166.26 217.958C168.416 216.896 170.323 215.387 171.853 213.529C169.466 215.28 166.663 216.374 163.724 216.699C160.785 217.025 157.812 216.572 155.101 215.386Z" fill="#C38E25"/>
</g>
<defs>
<clipPath id="clip0_59_10913">
<rect width="311" height="220" fill="white"/>
</clipPath>
</defs>
</svg>
